<?xml version="1.0" standalone="no"?>
<!DOCTYPE svg PUBLIC "-//W3C//DTD SVG 20010904//EN"
 "http://www.w3.org/TR/2001/REC-SVG-20010904/DTD/svg10.dtd">
<svg version="1.0" xmlns="http://www.w3.org/2000/svg"
 width="200.000000pt" height="200.000000pt" viewBox="0 0 200.000000 200.000000"
 preserveAspectRatio="xMidYMid meet">
<metadata>
Created by potrace 1.15, written by Peter Selinger 2001-2017
</metadata>
<g transform="translate(0.000000,200.000000) scale(0.100000,-0.100000)"
fill="#000000" stroke="none">
<path d="M50 1813 c-27 -10 -50 -36 -50 -54 0 -31 48 -54 115 -55 68 -1 226
-37 261 -60 25 -17 43 -60 156 -372 38 -108 86 -240 105 -292 88 -241 89 -250
26 -291 -46 -29 -63 -61 -63 -115 0 -82 63 -124 186 -124 l74 0 -37 -33 c-31
-29 -37 -41 -40 -88 -5 -66 17 -107 70 -132 67 -32 140 -12 178 50 17 27 20
45 16 86 -4 42 -10 56 -41 84 l-36 33 304 0 304 0 -39 -39 c-35 -34 -39 -44
-39 -87 0 -112 103 -177 199 -126 49 26 73 75 68 136 -4 41 -10 55 -40 82
l-36 33 62 3 c62 3 62 3 62 33 l0 30 -545 5 c-406 5 -551 9 -567 18 -28 16
-30 56 -4 78 43 37 77 71 87 89 10 18 23 19 522 7 320 -7 521 -8 536 -2 14 5
32 19 40 32 14 22 116 603 116 661 0 30 -24 47 -42 29 -11 -11 -14 -29 -73
-367 -44 -252 -50 -273 -78 -280 -12 -3 -249 -2 -527 2 l-505 8 -146 423 c-80
233 -155 435 -166 450 -29 39 -67 58 -163 82 -47 12 -98 31 -114 42 -30 21
-107 33 -136 21z"/>
</g>
</svg>
